<?xml version="1.0" standalone="no"?>
<!DOCTYPE svg PUBLIC "-//W3C//DTD SVG 20010904//EN"
 "http://www.w3.org/TR/2001/REC-SVG-20010904/DTD/svg10.dtd">
<svg version="1.0" xmlns="http://www.w3.org/2000/svg"
 width="1050.000000pt" height="631.000000pt" viewBox="0 0 1050.000000 631.000000"
 preserveAspectRatio="xMidYMid meet">

<g transform="translate(0.000000,631.000000) scale(0.100000,-0.100000)"
fill="#000000" stroke="none">
<path d="M1460 4919 c-133 -7 -239 -33 -341 -85 -63 -31 -73 -40 -94 -87 -33
-70 -40 -125 -25 -201 16 -87 59 -159 112 -190 144 -82 386 -49 584 79 117 76
324 313 324 372 0 25 -234 94 -370 110 -41 4 -127 5 -190 2z"/>
<path d="M3004 3941 c-130 -59 -161 -235 -59 -337 88 -87 215 -84 302 7 40 42
53 77 53 139 0 62 -13 97 -53 139 -65 68 -161 89 -243 52z"/>
<path d="M6925 3941 c-72 -32 -125 -113 -125 -191 0 -109 101 -210 210 -210
112 0 210 98 210 210 0 150 -160 253 -295 191z"/>
<path d="M1965 3930 c-224 -27 -336 -127 -365 -326 -6 -41 -10 -394 -10 -881
l0 -813 240 0 240 0 0 550 0 550 344 0 344 0 58 93 c31 50 63 99 71 107 11 12
13 -93 13 -643 l0 -657 195 0 195 0 0 730 0 730 -152 1 c-84 1 -359 0 -610 -1
l-458 -2 0 80 c0 121 -11 116 288 122 l246 5 78 179 c43 99 78 181 78 183 0 6
-736 0 -795 -7z"/>
<path d="M4270 3678 l0 -263 -133 -2 c-343 -4 -552 -118 -629 -340 -22 -66
-23 -78 -23 -408 0 -302 2 -347 18 -400 30 -97 75 -171 143 -234 111 -104 228
-144 424 -145 87 0 145 5 190 17 188 50 313 162 379 342 l26 70 3 813 3 812
-201 0 -200 0 0 -262z m-17 -593 c17 -7 18 -29 15 -369 -3 -350 -4 -362 -25
-406 -33 -66 -70 -85 -168 -85 -95 0 -131 17 -167 79 -23 41 -23 44 -23 351 0
292 1 312 20 344 44 75 114 103 240 97 50 -2 98 -8 108 -11z"/>
<path d="M6190 2925 l0 -1015 195 0 195 0 0 1015 0 1015 -195 0 -195 0 0
-1015z"/>
<path d="M7430 3147 c0 -852 -1 -837 57 -956 38 -78 134 -171 224 -215 104
-51 166 -66 307 -73 l122 -6 0 179 0 179 -73 0 c-120 1 -192 39 -228 120 -17
36 -19 71 -19 343 l0 302 195 0 195 0 51 101 c27 56 52 99 55 97 2 -3 105
-298 228 -656 l225 -650 -37 -89 c-43 -103 -99 -168 -156 -178 l-36 -7 0 -160
0 -161 68 7 c233 23 361 148 484 474 35 94 538 1559 538 1568 0 2 -94 4 -210
4 -115 0 -210 -2 -210 -4 0 -12 -223 -830 -242 -886 l-21 -65 -12 35 c-6 19
-65 234 -131 477 l-119 443 -430 2 -430 3 -3 278 -2 277 -195 0 -195 0 0 -783z"/>
<path d="M5323 3410 c-235 -29 -390 -157 -449 -367 -21 -76 -31 -447 -15 -590
19 -173 78 -318 167 -407 49 -49 145 -106 219 -129 59 -18 92 -22 210 -21 98
0 159 5 202 17 177 47 284 151 328 318 26 96 39 89 -165 89 l-180 0 -15 -37
c-32 -77 -91 -113 -185 -113 -67 0 -101 14 -142 57 -44 46 -61 99 -66 211 l-5
102 393 0 393 0 -5 203 c-6 232 -21 315 -75 419 -57 110 -163 194 -288 229
-78 21 -228 30 -322 19z m212 -289 c77 -35 109 -100 120 -238 l7 -93 -216 0
-216 0 0 78 c0 88 19 166 52 207 48 61 171 84 253 46z"/>
<path d="M6820 2640 l0 -730 195 0 195 0 0 730 0 730 -195 0 -195 0 0 -730z"/>
<path d="M2890 1505 l0 -185 45 0 45 0 0 185 0 185 -45 0 -45 0 0 -185z"/>
<path d="M3330 1505 l0 -185 45 0 44 0 3 108 3 107 75 -107 75 -108 43 0 42 0
0 185 0 185 -45 0 -45 0 0 -107 0 -108 -77 107 c-78 107 -78 107 -120 108
l-43 0 0 -185z"/>
<path d="M4055 1671 c-59 -26 -82 -93 -54 -154 16 -35 46 -49 122 -56 74 -6
89 -18 61 -46 -15 -14 -29 -16 -78 -12 -34 3 -71 9 -84 13 -22 6 -23 4 -20
-37 4 -51 15 -56 120 -58 101 -2 150 26 162 92 15 83 -28 127 -131 136 -54 5
-68 10 -71 23 -7 35 80 46 166 22 22 -6 23 -4 20 37 -3 36 -7 44 -28 50 -50
14 -144 9 -185 -10z"/>
<path d="M4610 1583 c1 -144 11 -188 49 -227 30 -30 34 -31 117 -31 l86 0 34
37 34 38 0 145 0 145 -45 0 -45 0 0 -129 c0 -145 -6 -161 -63 -161 -64 0 -77
31 -77 181 l0 109 -45 0 -45 0 0 -107z"/>
<path d="M5280 1505 l0 -185 45 0 45 0 0 75 c0 41 4 75 9 75 6 0 33 -34 62
-75 l51 -75 59 0 59 0 -56 75 -57 76 31 32 c38 40 47 75 32 122 -17 52 -55 65
-180 65 l-100 0 0 -185z m174 99 c40 -15 1 -73 -50 -77 -25 -2 -29 2 -32 26
-2 16 -1 35 2 43 5 14 52 19 80 8z"/>
<path d="M6011 1673 c-5 -10 -39 -90 -76 -178 -37 -88 -69 -163 -72 -167 -2
-5 18 -8 46 -8 l49 0 18 45 17 45 68 0 67 0 18 -45 c17 -45 17 -45 66 -45 43
0 49 2 44 17 -4 9 -39 93 -79 185 l-72 168 -42 0 c-30 0 -45 -5 -52 -17z m62
-130 c2 -10 8 -26 12 -35 6 -14 2 -18 -17 -18 -34 0 -38 7 -26 41 11 33 23 37
31 12z"/>
<path d="M6570 1505 l0 -185 45 0 44 0 3 108 3 107 76 -105 c73 -102 76 -105
117 -108 l42 -3 0 185 0 186 -40 0 -40 0 0 -105 c0 -58 -3 -105 -7 -105 -5 1
-41 48 -82 105 l-75 105 -43 0 -43 0 0 -185z"/>
<path d="M7330 1668 c-70 -36 -85 -65 -85 -163 0 -90 11 -116 68 -159 31 -23
166 -34 210 -17 24 9 27 16 27 55 l0 45 -37 -16 c-46 -19 -125 -13 -153 12
-11 10 -22 33 -26 51 -20 105 60 160 175 119 l42 -14 -3 46 c-3 55 -14 60
-113 62 -45 1 -72 -5 -105 -21z"/>
<path d="M7880 1505 l0 -185 135 0 135 0 0 40 0 40 -90 0 -90 0 0 30 0 30 80
0 80 0 0 45 0 45 -81 0 -80 0 3 28 c3 27 4 27 86 30 l82 3 0 39 0 40 -130 0
-130 0 0 -185z"/>
</g>
</svg>
